<?xml version="1.0" encoding="utf-8"?>
<!-- Generator: Adobe Illustrator 25.0.0, SVG Export Plug-In . SVG Version: 6.00 Build 0)  -->
<svg version="1.1" id="Layer_1" xmlns="http://www.w3.org/2000/svg" xmlns:xlink="http://www.w3.org/1999/xlink" x="0px" y="0px"
	 viewBox="0 0 431 81" style="enable-background:new 0 0 431 81;" xml:space="preserve">
<style type="text/css">
	.st0{enable-background:new    ;}
	.st1{fill:#7D7D7D;}
	.st2{fill:#7C7C7B;}
	.st3{fill:#00ACA9;}
	.st4{fill:#79C6C0;}
	.st5{fill:#38B6AB;}
	.st6{fill:#0075BF;}
	.st7{fill:#00AB97;}
	.st8{fill:#009BD9;}
	.st9{fill:#49BED8;}
	.st10{fill:#52BBB5;}
</style>
<g id="그룹_23" transform="translate(-75 -26)">
	<g class="st0">
		<path class="st1" d="M259.1,72.4h-7.7l-1.9,6.3H246l7.3-22.1h4l7.3,22.1H261L259.1,72.4z M258.3,69.7l-0.9-3
			c-0.8-2.4-1.4-4.9-2.1-7.3h-0.1c-0.6,2.5-1.3,5-2,7.3l-0.9,3H258.3z"/>
		<path class="st1" d="M267.6,56.7h3.5v22.1h-3.5V56.7z"/>
	</g>
	<g class="st0">
		<path class="st1" d="M294.2,69.2c-2.5-0.9-4.3-2.6-5.3-4.7c-1,2.3-2.8,4.2-5.5,5.1l-1.7-2.6c3.8-1.3,5.5-4.5,5.5-7.6v-2.3h3.3v2.3
			c0,3,1.6,6,5.3,7.2L294.2,69.2z M301.4,75.9v2.6h-15.9v-7.4h3.3v4.8H301.4z M300.8,72.7h-3.3V55.9h3.3V72.7z"/>
		<path class="st1" d="M311.2,68.4c-3.5,0-6.2-2.3-6.2-5.6s2.7-5.6,6.2-5.6c3.5,0,6.2,2.4,6.2,5.6S314.7,68.4,311.2,68.4z
			 M307.5,70.4h15.3v8.5h-3.3V73h-12V70.4z M311.2,65.6c1.7,0,3-1.1,3-2.8c0-1.8-1.3-2.8-3-2.8c-1.8,0-3,1-3,2.8
			C308.1,64.5,309.4,65.6,311.2,65.6z M322.8,61.5v2.3h2.9v2.7h-2.9v2.9h-3.3V55.9h3.3v3h2.9v2.7H322.8z"/>
		<path class="st1" d="M337.7,58.7c0,6.4-1.9,11.7-8.3,15.5l-1.9-2.3c4.6-2.7,6.6-6,7-10.5h-5.8v-2.6H337.7z M347.4,55.9v23h-3.1
			V67.2h-2v10.7h-3.1V56.5h3.1v8.1h2v-8.7H347.4z"/>
		<path class="st1" d="M362.4,67h-11V56.9h3.3v2.7h4.5v-2.7h3.2V67z M357,76.2h12.5v2.5h-15.8v-6.3h11.9V71h-11.9v-2.5h15.2v6.2H357
			V76.2z M359.2,62.1h-4.5v2.3h4.5V62.1z M371.9,60.3V63h-3v4.6h-3.3V55.9h3.3v4.4H371.9z"/>
	</g>
	<g class="st0">
		<path class="st1" d="M382.3,56.7h6.7c4.9,0,8.4,1.7,8.4,6.7c0,4.8-3.5,7-8.3,7h-3.3v8.4h-3.5V56.7z M388.8,67.6
			c3.5,0,5.2-1.4,5.2-4.3c0-2.9-1.8-3.9-5.3-3.9h-2.9v8.1H388.8z"/>
		<path class="st1" d="M401.4,74.9v-20h3.4v20.2c0,0.9,0.4,1.3,0.8,1.3c0.1,0,0.3,0,0.6-0.1l0.4,2.6c-0.4,0.1-1,0.3-1.9,0.3
			C402.3,79.1,401.4,77.5,401.4,74.9z"/>
		<path class="st1" d="M409.4,74.4c0-3.5,3-5.4,9.9-6.1c0-1.9-0.7-3.6-3.1-3.6c-1.7,0-3.4,0.8-4.8,1.7L410,64c1.7-1.1,4-2.2,6.7-2.2
			c4.1,0,6,2.6,6,7v9.9h-2.8l-0.3-1.9h-0.1c-1.5,1.3-3.3,2.3-5.3,2.3C411.4,79.1,409.4,77.3,409.4,74.4z M419.2,74.5v-4
			c-4.9,0.6-6.5,1.8-6.5,3.7c0,1.6,1.1,2.3,2.6,2.3C416.7,76.4,417.9,75.7,419.2,74.5z"/>
		<path class="st1" d="M427.6,73.3V65h-2.4v-2.6l2.5-0.2l0.4-4.6h2.9v4.6h4.3V65h-4.3v8.4c0,2,0.7,3,2.4,3c0.6,0,1.3-0.2,1.8-0.4
			l0.6,2.5c-0.9,0.3-2,0.6-3.2,0.6C428.9,79.1,427.6,76.8,427.6,73.3z"/>
		<path class="st1" d="M447,57.6c-0.6-0.3-1.2-0.4-1.8-0.4c-1.5,0-2.2,1-2.2,3v2.1h3.3V65H443v13.7h-3.5V65h-2.2v-2.6l2.2-0.2v-2.1
			c0-3.4,1.5-5.7,5.2-5.7c1.1,0,2.2,0.2,2.9,0.6L447,57.6z"/>
		<path class="st1" d="M447.8,70.5c0-5.5,3.7-8.7,7.8-8.7c4.1,0,7.8,3.2,7.8,8.7c0,5.5-3.7,8.6-7.8,8.6
			C451.5,79.1,447.8,76,447.8,70.5z M459.8,70.5c0-3.5-1.6-5.8-4.2-5.8c-2.6,0-4.2,2.3-4.2,5.8c0,3.5,1.6,5.8,4.2,5.8
			C458.2,76.3,459.8,74,459.8,70.5z"/>
		<path class="st1" d="M467.4,62.2h2.8l0.3,3h0.1c1.2-2.1,2.9-3.4,4.7-3.4c0.8,0,1.3,0.1,1.9,0.4l-0.6,3c-0.6-0.2-1-0.3-1.6-0.3
			c-1.4,0-3,0.9-4,3.5v10.3h-3.4V62.2z"/>
		<path class="st1" d="M479.7,62.2h2.8l0.3,2.3h0.1c1.4-1.5,3.1-2.7,5.1-2.7c2.5,0,3.8,1.1,4.6,3c1.6-1.7,3.3-3,5.4-3
			c3.5,0,5.1,2.3,5.1,6.5v10.4h-3.5v-10c0-2.8-0.9-4-2.8-4c-1.1,0-2.3,0.8-3.7,2.3v11.7h-3.5v-10c0-2.8-0.9-4-2.8-4
			c-1.1,0-2.3,0.8-3.7,2.3v11.7h-3.4V62.2z"/>
	</g>
</g>
<g>
	<path class="st2" d="M130.8,23.1v6.2c0,0.2,0.1,0.3,0.3,0.3h10.3c0.1,0,0.1,0.1,0.1,0.1v24.5c0,2.4,1.9,4.3,4.3,4.3
		c2.4,0,4.3-1.9,4.3-4.3V29.6c0-0.1,0.1-0.1,0.1-0.1h10.4c0.2,0,0.3-0.1,0.3-0.3v-6.1c0-0.2-0.1-0.3-0.3-0.3h-29.5
		C131,22.8,130.8,22.9,130.8,23.1"/>
	<path class="st2" d="M77.6,22.7h-3.8c-0.7,0-0.6,0.6-0.2,0.8c1.5,0.6,4,2.5,4,6.2l0,0v24.4c0,2.2,1.6,4.2,3.8,4.4
		c2.5,0.2,4.7-1.8,4.7-4.2V23.1c0-0.2-0.2-0.4-0.4-0.4H77.6z"/>
	<path class="st2" d="M50.2,37.5c-0.1,0-0.1-0.1-0.1-0.1v-7.6c0-0.1,0.1-0.1,0.1-0.1h9c2,0,3.5,2,3.5,3.9c0,2.1-1.7,3.9-3.5,3.9
		H50.2z M73.1,57.5L61.7,43.4c3.9-0.7,8.2-4.3,8.2-9.9c0-6.7-4.5-10.7-10.8-10.7H37.6c-0.6,0-0.6,0.6-0.2,0.8c1.5,0.6,4,2.5,4,6.2
		v24.3c0,2.3,1.7,4.3,3.9,4.5c2.6,0.2,4.7-1.8,4.7-4.3V41.9c0,0,0-0.1,0.1-0.1c0,0,0.1,0,0.1,0L63,58c0.1,0.1,0.2,0.1,0.3,0.1h9.6
		c0.1,0,0.3-0.1,0.3-0.2C73.2,57.8,73.2,57.6,73.1,57.5"/>
	<path class="st3" d="M106.4,20.7c1.6-0.4,3.3-0.6,5.1-0.6c6.8,0,13,3.4,16.8,8.7c0.1,0.1,0.1,0.3-0.1,0.4l-7,4.7
		c-0.1,0.1-0.3,0.1-0.4-0.1c-2.1-3-5.5-4.8-9.3-4.8c-6.3,0-11.4,5.1-11.4,11.4s5.1,11.4,11.4,11.4c3.8,0,7.2-1.9,9.3-4.8
		c0.1-0.1,0.3-0.2,0.4-0.1l7,4.7c0.1,0.1,0.2,0.3,0.1,0.4c-3.7,5.4-9.9,8.8-16.8,8.8c-10.6,0-19.4-8.1-20.4-18.5
		c-0.2-2.5,0-5,0.7-7.5c-1.5-2.2-1.5-5.2,0.1-7.4c2-2.8,5.8-3.5,8.7-1.8c1.2-1.6,2.9-2.6,5-2.8c0,0,0-0.8,0.1-1.2
		C105.7,21.3,106.4,20.7,106.4,20.7"/>
	<path class="st4" d="M76.6,14.9c0-2.6,2.1-4.8,4.8-4.8c2.6,0,4.8,2.1,4.8,4.8c0,2.6-2.1,4.8-4.8,4.8C78.8,19.7,76.6,17.6,76.6,14.9
		"/>
	<path class="st5" d="M103.7,31.3c0,0.3,0,0.5,0,0.8c-0.9,0.8-1.6,1.8-2.2,2.8c-1.4-1.3-2.2-3.1-2.2-5.1c0-1.5,0.5-2.9,1.3-4.1
		C102.5,26.9,103.7,29,103.7,31.3"/>
	<path class="st5" d="M113.1,29.2c-0.5-0.1-1.1-0.1-1.6-0.1c-0.6,0-1.2,0-1.7,0.1c-2.4-1.1-4.1-3.5-4.1-6.2
		C109.4,22.6,112.7,25.4,113.1,29.2"/>
	<path class="st6" d="M115.4,55.8c-0.9,0-1.7,0.1-2.5,0.3c0.4,1.7,1.2,3.2,2.3,4.5c2.4-0.4,4.6-1.3,6.6-2.4
		C120.1,56.7,117.8,55.8,115.4,55.8"/>
	<path class="st7" d="M119.7,22.7c0,3.2-2.1,5.9-5,6.8c2.5,0.7,4.6,2.3,6.1,4.3c0.1,0.1,0.3,0.2,0.4,0.1l7-4.7
		c0.1-0.1,0.2-0.3,0.1-0.4c-2.1-3.1-5.1-5.5-8.6-7C119.7,22.1,119.7,22.4,119.7,22.7"/>
	<path class="st4" d="M100.3,15.3l3.1,1.8c0.1,0.1,0.2,0.2,0.2,0.4l0,3.6c0,0.2-0.1,0.3-0.2,0.4l-3.1,1.8c-0.1,0.1-0.3,0.1-0.5,0
		l-3.1-1.8c-0.1-0.1-0.2-0.2-0.2-0.4v-3.6c0-0.2,0.1-0.3,0.2-0.4l3.1-1.8C100,15.3,100.2,15.3,100.3,15.3"/>
	<path class="st4" d="M93.2,18.6c0,1.3-1.1,2.4-2.4,2.4c-1.3,0-2.4-1.1-2.4-2.4c0-1.3,1.1-2.4,2.4-2.4
		C92.1,16.1,93.2,17.2,93.2,18.6"/>
	<path class="st4" d="M97.1,14.3c0,1.1-0.9,1.9-1.9,1.9c-1.1,0-1.9-0.9-1.9-1.9c0-1.1,0.9-1.9,1.9-1.9
		C96.2,12.3,97.1,13.2,97.1,14.3"/>
	<path class="st8" d="M128.2,51.8l-7-4.7c-0.1-0.1-0.3-0.1-0.4,0.1c-1.8,2.5-4.6,4.3-7.9,4.7c-0.2,0.7-0.2,1.4-0.2,2.1
		c0,0.7,0.1,1.5,0.2,2.1c0.8-0.2,1.7-0.3,2.5-0.3c2.4,0,4.7,0.9,6.4,2.4c2.6-1.5,4.8-3.5,6.5-6C128.3,52.1,128.3,51.9,128.2,51.8"/>
	<path class="st8" d="M115.2,60.6c-1.1-1.3-1.9-2.8-2.3-4.5c-2.4,0.7-4.5,2.3-5.8,4.4c1.4,0.3,2.9,0.5,4.4,0.5
		C112.7,61,114,60.8,115.2,60.6"/>
	<path class="st3" d="M100.6,44.1c-1.8-1.3-4-2.1-6.4-2.1c-1.1,0-2.1,0.2-3.1,0.4c0.7,7.5,5.4,13.8,12,16.7c2-2.9,2.5-6.4,1.5-9.5
		C102.7,48.2,101.3,46.3,100.6,44.1"/>
	<path class="st9" d="M112.6,54c0-0.7,0.1-1.4,0.2-2.1c-0.5,0.1-0.9,0.1-1.4,0.1c-2.6,0-5-0.9-6.9-2.3c1,3.1,0.5,6.7-1.5,9.5
		c1.3,0.6,2.6,1,4,1.3c1.3-2.1,3.3-3.7,5.8-4.4C112.7,55.4,112.6,54.7,112.6,54"/>
	<path class="st10" d="M94.2,42c2.4,0,4.6,0.8,6.4,2.1c-0.4-1.1-0.6-2.3-0.6-3.6c0-1.3,0.2-2.5,0.6-3.6c-1,0.6-2.1,0.9-3.4,0.9
		c-2.3,0-4.3-1.2-5.4-2.9c-0.5,1.8-0.8,3.6-0.8,5.6c0,0.6,0,1.3,0.1,1.9C92.1,42.1,93.1,42,94.2,42"/>
	<path class="st10" d="M103.7,32.1c0-0.3,0-0.5,0-0.8c0-2.4-1.3-4.4-3.1-5.6c1.1-1.6,2.9-2.6,5-2.8c0.1,2.8,1.7,5.2,4.1,6.3
		C107.4,29.5,105.3,30.6,103.7,32.1"/>
	<path class="st10" d="M119.7,22.7c0,3.2-2.1,5.9-5,6.8c-0.5-0.2-1.1-0.3-1.6-0.4c-0.4-3.7-3.7-6.6-7.5-6.2c0-0.5,0-1,0.1-1.5
		c0.1-0.4,0.3-0.6,0.7-0.7c1.6-0.4,3.3-0.6,5.1-0.6c2.9,0,5.7,0.6,8.2,1.7C119.7,22.1,119.7,22.4,119.7,22.7"/>
	<path class="st4" d="M101.5,34.9c-0.4,0.6-0.7,1.3-0.9,2c-1,0.6-2.1,0.9-3.4,0.9c-2.3,0-4.3-1.2-5.4-2.9c-1.5-2.2-1.5-5.2,0.1-7.4
		c1.2-1.7,3.1-2.7,5.3-2.7c1.2,0,2.4,0.3,3.4,1c-0.8,1.1-1.3,2.6-1.3,4.1C99.3,31.8,100.1,33.6,101.5,34.9"/>
	<path class="st2" d="M35.9,57.5L22,40c0,0,0-0.1,0-0.1L34,23.4c0.2-0.2,0-0.6-0.3-0.6h-8.3c-0.2,0-0.3,0.1-0.4,0.2L13.1,39.5
		c-0.1,0.1-0.2,0-0.2-0.1V23.2c0-0.2-0.2-0.4-0.4-0.4H0.5c-0.5,0-0.6,0.6-0.2,0.8c1.5,0.6,4,2.5,4,6.2v24.3c0,2.4,1.9,4.4,4.2,4.5
		c2.4,0,4.4-1.9,4.4-4.3V42.1c0,0,0-0.1,0.1-0.1c0,0,0.1,0,0.1,0l12.4,15.9c0.1,0.1,0.2,0.1,0.3,0.1h9.8c0.1,0,0.3-0.1,0.3-0.2
		C36,57.8,36,57.6,35.9,57.5"/>
</g>
</svg>
